# xmcd
#
# Track frame offsets: 
#        150
#        15626
#        30101
#        43910
#        57858
#        71838
#        85618
#        99968
#        113398
#        128672
#        143679
#        159387
#        173227
#        187787
#        202138
#        216648
#        231738
#        246072
#        260458
#        273909
#        287006
#        299699
#
# Disc length: 4174 seconds
#
# Revision: 0
# Processed by: cddbd v1.5.1PL0 Copyright (c) Steve Scherf et al.
# Submitted via: ExactAudioCopy v0.95a5
#
DISCID=3e104c16
DTITLE=Blind Willie Johnson - King of the Guitar Evangelists
DYEAR=2004
DGENRE=
TTITLE0=I'm Gonna Run to the City of Refuge
TTITLE1=Jesus Is Coming Soon
TTITLE2=Lord I Just Can't Keep from Crying
TTITLE3=Keep Your Lamp Trimmed and Burning
TTITLE4=You'll Need Somebody on Your Bond
TTITLE5=When the War Was On
TTITLE6=Praise God I'm Satisfied
TTITLE7=Take Your Burden to the Lord
TTITLE8=Can't Nobody Hide from God
TTITLE9=The Rain Don't Fall on Me
TTITLE10=The Soul of a Man
TTITLE11=I Know His Blood Can Make Me Whole
TTITLE12=Jesus Make Up My Dying Bed
TTITLE13=It's Nobody's Fault but Mine
TTITLE14=Motherless Children Have a Hard Time
TTITLE15=Dark Was the Night Cold Was the Ground
TTITLE16=If I Had My Way I'd Tear the Building Down
TTITLE17=Let Your Light Shine on Me
TTITLE18=God Don't Never Change
TTITLE19=Bye and Bye I'm Going to See the King
TTITLE20=Sweeter As the Years Roll By
TTITLE21=God Moves on the Water
EXTD=
EXTT0=
EXTT1=
EXTT2=
EXTT3=
EXTT4=
EXTT5=
EXTT6=
EXTT7=
EXTT8=
EXTT9=
EXTT10=
EXTT11=
EXTT12=
EXTT13=
EXTT14=
EXTT15=
EXTT16=
EXTT17=
EXTT18=
EXTT19=
EXTT20=
EXTT21=
PLAYORDER=
